<svg width="40" height="35" viewBox="0 0 40 35" fill="none" xmlns="http://www.w3.org/2000/svg">
<path class="icon__color-element" fill-rule="evenodd" clip-rule="evenodd" d="M18.2233 0.358331C18.4212 0.556232 18.4212 0.877093 18.2233 1.07499L2.4401 16.8582L19.4409 16.8582C19.7208 16.8582 19.9477 17.0851 19.9477 17.365C19.9477 17.6448 19.7208 17.8717 19.4409 17.8717L2.4401 17.8717L18.2233 33.6549C18.4212 33.8528 18.4212 34.1737 18.2233 34.3716C18.0254 34.5695 17.7046 34.5695 17.5067 34.3716L0.858348 17.7233C0.660447 17.5254 0.660447 17.2045 0.858349 17.0066L17.5067 0.358331C17.7046 0.16043 18.0254 0.16043 18.2233 0.358331Z" fill="#000000"/>
<path class="icon__color-element" fill-rule="evenodd" clip-rule="evenodd" d="M39.5724 17.38L23.2634 1.07103C21.9013 -0.291058 19.5724 0.673626 19.5724 2.59991V32.1601C19.5724 34.0863 21.9013 35.051 23.2634 33.6889L39.5724 17.38ZM37.6323 17.8867H20.5859V32.1601C20.5859 33.1834 21.8232 33.6959 22.5468 32.9723L37.6323 17.8867ZM20.5859 16.8732H37.6323L22.5468 1.78769C21.8232 1.06408 20.5859 1.57657 20.5859 2.59991V16.8732Z" fill="#000000"/>
</svg>
