<svg width="20" height="20" viewBox="0 0 20 20" fill="none" xmlns="http://www.w3.org/2000/svg">
<path class="icon__color-element" d="M9.98829 10.284C7.63413 10.284 5.67746 8.329 5.67746 6.01567C5.67746 3.62234 7.63413 1.6665 9.98913 1.6665C12.4241 1.6665 14.3 3.6215 14.3 6.01567C14.2958 7.15155 13.8407 8.23928 13.0349 9.03981C12.2291 9.84034 11.1383 10.2882 10.0025 10.2848L9.98829 10.284ZM9.98829 4.18067C8.99163 4.18067 8.23329 5.01817 8.23329 6.0165C8.23329 7.01317 8.99163 7.7715 9.98913 7.7715C11.0266 7.7715 11.745 7.01317 11.745 6.0165C11.7458 5.01734 11.0266 4.18067 9.98829 4.18067ZM11.705 13.8357L14.1408 16.1898C14.62 16.7073 14.62 17.4657 14.1408 17.9448C13.6225 18.4623 12.8233 18.4623 12.4241 17.9448L9.98913 15.5507L7.63413 17.9448C7.39496 18.184 7.07496 18.3032 6.71496 18.3032C6.43579 18.3032 6.11663 18.1832 5.83663 17.9448C5.35746 17.4657 5.35746 16.7073 5.83663 16.189L8.31163 13.8348C7.41782 13.5702 6.56041 13.1953 5.75913 12.719C5.15996 12.3998 5.04079 11.6023 5.35996 11.0032C5.75913 10.4048 6.47746 10.2457 7.11663 10.6448C7.98212 11.173 8.97644 11.4525 9.99038 11.4525C11.0043 11.4525 11.9986 11.173 12.8641 10.6448C13.5033 10.2457 14.2608 10.4048 14.62 11.0032C14.98 11.6023 14.8191 12.399 14.26 12.719C13.5025 13.1982 12.6241 13.5573 11.7058 13.8365L11.705 13.8357Z" fill="#000000"/>
</svg>
