<svg width="15" height="14" fill="none" xmlns="http://www.w3.org/2000/svg"><path d="M13.032 5.833c0 4.084-5.585 7.584-5.585 7.584s-5.585-3.5-5.585-7.583c0-1.393.588-2.728 1.636-3.713C4.545 1.137 5.966.583 7.447.583c1.481 0 2.902.554 3.95 1.538 1.046.985 1.635 2.32 1.635 3.712z" stroke="#4E4E4E" stroke-linecap="round" stroke-linejoin="round"/><path d="M7.447 7.583c1.028 0 1.861-.783 1.861-1.75 0-.966-.833-1.75-1.861-1.75s-1.862.784-1.862 1.75c0 .967.834 1.75 1.862 1.75z" stroke="#4E4E4E" stroke-linecap="round" stroke-linejoin="round"/></svg>